<svg width="3424" height="1018" viewBox="0 0 3424 1018" fill="none" xmlns="http://www.w3.org/2000/svg">
<g clip-path="url(#clip0_10516_32631)">
<g filter="url(#filter0_d_10516_32631)">
<rect y="-0.5" width="1018" height="1018" rx="70" fill="black"/>
<path d="M262.331 101.303V116.964H176.193C143.757 116.964 117.462 143.259 117.462 175.695V273.58H101.8V179.61C101.8 136.362 136.86 101.303 180.108 101.303H262.331Z" fill="white"/>
<path d="M755.669 101.303V116.964H841.808C874.244 116.964 900.538 143.259 900.538 175.695V273.58H916.2V179.61C916.2 136.362 881.14 101.303 837.892 101.303H755.669Z" fill="white"/>
<path d="M916.2 755.169L900.538 755.169L900.538 841.307C900.538 873.743 874.244 900.038 841.808 900.038L743.923 900.038L743.923 915.699L837.892 915.699C881.14 915.699 916.2 880.64 916.2 837.392L916.2 755.169Z" fill="white"/>
<path d="M262.331 915.699V900.038H176.193C143.757 900.038 117.462 873.743 117.462 841.307L117.462 743.422H101.8L101.8 837.392C101.8 880.64 136.86 915.699 180.108 915.699H262.331Z" fill="white"/>
<path fill-rule="evenodd" clip-rule="evenodd" d="M217.304 835.433C209.473 825.645 234.923 749.295 354.342 520.245C360.144 509.116 365.701 498.329 371.062 487.923C446.798 340.91 483.337 269.982 618.63 385.164C669.53 428.498 736.092 502.625 683.234 563.314C667.282 581.629 614.74 617.504 589.751 634.566C585.359 637.565 581.818 639.982 579.477 641.621C569.036 639.664 545.804 640.055 536.407 657.283C514.873 641.621 474.544 634.182 462.015 682.733C447.006 685.343 418.163 699.57 422.861 735.591C344.554 782.575 224.653 844.619 217.304 835.433ZM321.061 698.394L375.877 749.294C377.834 740.811 377.443 720.712 360.215 708.183C342.987 695.654 326.934 696.437 321.061 698.394ZM434.607 588.764L383.707 541.779C391.538 537.864 403.284 537.864 420.904 551.567C434.999 562.531 435.913 580.933 434.607 588.764ZM522.704 563.314L585.35 620.087C586.655 611.603 585.741 591.113 571.646 577.017C554.027 559.398 530.534 561.356 522.704 563.314ZM546.196 485.006L471.804 418.444C487.465 414.529 503.127 416.487 526.619 434.106C545.413 448.201 547.501 473.912 546.196 485.006Z" fill="white"/>
<path d="M536.408 735.594L485.508 761.044C465.931 755.17 457.261 714.059 487.465 702.313C517.67 690.567 540.323 716.017 536.408 735.594Z" fill="white"/>
<path d="M587.308 704.268C587.308 715.08 578.543 723.845 567.731 723.845C556.919 723.845 548.154 715.08 548.154 704.268C548.154 693.456 556.919 684.691 567.731 684.691C578.543 684.691 587.308 693.456 587.308 704.268Z" fill="white"/>
<path d="M575.562 761.046C575.562 766.452 571.179 770.834 565.773 770.834C560.367 770.834 555.985 766.452 555.985 761.046C555.985 755.64 560.367 751.257 565.773 751.257C571.179 751.257 575.562 755.64 575.562 761.046Z" fill="white"/>
<path d="M691.065 402.784L626.461 346.01L640.165 171.776L689.107 175.691L669.53 312.73L763.5 181.564L818.315 234.422L718.473 349.926L792.865 324.476L814.4 369.503L691.065 402.784Z" fill="white"/>
</g>
<path d="M1167.64 775V244.091H1263.82V468.846H1509.83V244.091H1606.27V775H1509.83V549.467H1263.82V775H1167.64ZM1831.9 782.777C1791.98 782.777 1757.5 774.482 1728.46 757.891C1699.6 741.127 1677.39 717.45 1661.84 686.861C1646.29 656.098 1638.51 619.892 1638.51 578.242C1638.51 537.283 1646.29 501.336 1661.84 470.401C1677.57 439.293 1699.52 415.098 1727.69 397.816C1755.86 380.361 1788.95 371.634 1826.97 371.634C1851.51 371.634 1874.67 375.608 1896.45 383.558C1918.39 391.335 1937.75 403.433 1954.51 419.851C1971.45 436.269 1984.76 457.18 1994.44 482.585C2004.11 507.817 2008.95 537.888 2008.95 572.798V601.573H1682.58V538.32H1919C1918.83 520.347 1914.94 504.361 1907.33 490.362C1899.73 476.191 1889.1 465.044 1875.45 456.921C1861.97 448.799 1846.24 444.737 1828.27 444.737C1809.08 444.737 1792.23 449.403 1777.72 458.736C1763.2 467.895 1751.88 479.993 1743.76 495.028C1735.81 509.891 1731.75 526.223 1731.57 544.023V599.24C1731.57 622.398 1735.81 642.273 1744.28 658.864C1752.74 675.282 1764.58 687.898 1779.79 696.712C1795 705.353 1812.8 709.673 1833.19 709.673C1846.85 709.673 1859.2 707.772 1870.26 703.97C1881.32 699.995 1890.92 694.206 1899.04 686.602C1907.16 678.997 1913.3 669.579 1917.44 658.345L2005.06 668.196C1999.53 691.354 1988.99 711.574 1973.44 728.857C1958.06 745.966 1938.36 759.273 1914.33 768.778C1890.31 778.111 1862.83 782.777 1831.9 782.777ZM2122.79 650.05L2122.53 536.765H2137.57L2280.66 376.818H2390.32L2214.3 572.798H2194.86L2122.79 650.05ZM2037.24 775V244.091H2131.09V775H2037.24ZM2287.14 775L2157.53 593.796L2220.78 527.692L2399.39 775H2287.14ZM2516.34 783.036C2491.11 783.036 2468.38 778.543 2448.16 769.556C2428.11 760.397 2412.21 746.916 2400.46 729.116C2388.88 711.315 2383.09 689.367 2383.09 663.271C2383.09 640.804 2387.24 622.225 2395.54 607.536C2403.83 592.846 2415.15 581.094 2429.5 572.28C2443.84 563.466 2460 556.812 2477.97 552.319C2496.12 547.653 2514.87 544.283 2534.23 542.209C2557.56 539.789 2576.48 537.629 2591 535.728C2605.52 533.654 2616.06 530.543 2622.63 526.396C2629.37 522.075 2632.74 515.421 2632.74 506.435V504.879C2632.74 485.35 2626.95 470.228 2615.37 459.513C2603.79 448.799 2587.11 443.441 2565.33 443.441C2542.35 443.441 2524.12 448.453 2510.64 458.477C2497.33 468.5 2488.34 480.339 2483.68 493.991L2396.06 481.548C2402.97 457.353 2414.37 437.133 2430.27 420.888C2446.17 404.47 2465.62 392.199 2488.6 384.077C2511.59 375.781 2536.99 371.634 2564.82 371.634C2584 371.634 2603.1 373.88 2622.11 378.374C2641.12 382.867 2658.49 390.298 2674.21 400.668C2689.94 410.864 2702.56 424.776 2712.06 442.404C2721.74 460.032 2726.58 482.067 2726.58 508.509V775H2636.36V720.302H2633.25C2627.55 731.362 2619.51 741.732 2609.15 751.41C2598.95 760.915 2586.07 768.606 2570.52 774.482C2555.14 780.185 2537.08 783.036 2516.34 783.036ZM2540.71 714.08C2559.55 714.08 2575.88 710.365 2589.7 702.933C2603.53 695.329 2614.16 685.305 2621.59 672.862C2629.19 660.419 2632.99 646.853 2632.99 632.163V585.241C2630.06 587.661 2625.04 589.908 2617.96 591.982C2611.05 594.055 2603.27 595.87 2594.63 597.425C2585.99 598.981 2577.43 600.363 2568.96 601.573C2560.5 602.783 2553.15 603.82 2546.93 604.684C2532.93 606.585 2520.4 609.696 2509.34 614.016C2498.28 618.337 2489.55 624.386 2483.16 632.163C2476.76 639.767 2473.57 649.618 2473.57 661.715C2473.57 678.997 2479.87 692.045 2492.49 700.859C2505.11 709.673 2521.18 714.08 2540.71 714.08Z" fill="black"/>
<path d="M2910.81 774H2808.15L2995.06 243.091H3113.79L3300.95 774H3198.3L3056.5 351.969H3052.35L2910.81 774ZM2914.18 565.836H3194.15V643.087H2914.18V565.836ZM3415.96 243.091V774H3319.78V243.091H3415.96Z" fill="black"/>
</g>
<defs>
<filter id="filter0_d_10516_32631" x="-564.447" y="-508.502" width="2146.89" height="2146.89" filterUnits="userSpaceOnUse" color-interpolation-filters="sRGB">
<feFlood flood-opacity="0" result="BackgroundImageFix"/>
<feColorMatrix in="SourceAlpha" type="matrix" values="0 0 0 0 0 0 0 0 0 0 0 0 0 0 0 0 0 0 127 0" result="hardAlpha"/>
<feOffset dy="56.4447"/>
<feGaussianBlur stdDeviation="282.223"/>
<feComposite in2="hardAlpha" operator="out"/>
<feColorMatrix type="matrix" values="0 0 0 0 0 0 0 0 0 0 0 0 0 0 0 0 0 0 0.1 0"/>
<feBlend mode="normal" in2="BackgroundImageFix" result="effect1_dropShadow_10516_32631"/>
<feBlend mode="normal" in="SourceGraphic" in2="effect1_dropShadow_10516_32631" result="shape"/>
</filter>
<clipPath id="clip0_10516_32631">
<rect width="3424" height="1018" fill="white"/>
</clipPath>
</defs>
</svg>
